<svg width="18" height="10" viewBox="0 0 18 10" fill="none" xmlns="http://www.w3.org/2000/svg">
<path d="M2.09316 8.575C2.01391 8.49913 1.92046 8.43966 1.81816 8.4C1.61528 8.31665 1.38771 8.31665 1.18483 8.4C1.08254 8.43966 0.989082 8.49913 0.909829 8.575C0.833962 8.65425 0.774491 8.74771 0.734829 8.85C0.671013 9.00176 0.653577 9.16902 0.684723 9.33068C0.715868 9.49234 0.794198 9.64115 0.909829 9.75833C0.99083 9.83194 1.08384 9.89113 1.18483 9.93333C1.28458 9.97742 1.39244 10.0002 1.5015 10.0002C1.61055 10.0002 1.71841 9.97742 1.81816 9.93333C1.91915 9.89113 2.01216 9.83194 2.09316 9.75833C2.20879 9.64115 2.28712 9.49234 2.31827 9.33068C2.34941 9.16902 2.33198 9.00176 2.26816 8.85C2.2285 8.74771 2.16903 8.65425 2.09316 8.575ZM4.83483 1.66667H16.5015C16.7225 1.66667 16.9345 1.57887 17.0908 1.42259C17.247 1.26631 17.3348 1.05435 17.3348 0.833333C17.3348 0.61232 17.247 0.400358 17.0908 0.244078C16.9345 0.0877975 16.7225 0 16.5015 0H4.83483C4.61382 0 4.40185 0.0877975 4.24557 0.244078C4.08929 0.400358 4.0015 0.61232 4.0015 0.833333C4.0015 1.05435 4.08929 1.26631 4.24557 1.42259C4.40185 1.57887 4.61382 1.66667 4.83483 1.66667ZM2.09316 4.40833C1.97598 4.2927 1.82717 4.21437 1.66551 4.18323C1.50385 4.15208 1.33659 4.16952 1.18483 4.23333C1.08384 4.27553 0.99083 4.33472 0.909829 4.40833C0.833962 4.48759 0.774491 4.58104 0.734829 4.68333C0.690741 4.78308 0.667969 4.89094 0.667969 5C0.667969 5.10906 0.690741 5.21692 0.734829 5.31667C0.777031 5.41765 0.83622 5.51067 0.909829 5.59167C0.99083 5.66528 1.08384 5.72446 1.18483 5.76667C1.28458 5.81075 1.39244 5.83353 1.5015 5.83353C1.61055 5.83353 1.71841 5.81075 1.81816 5.76667C1.91915 5.72446 2.01216 5.66528 2.09316 5.59167C2.16677 5.51067 2.22596 5.41765 2.26816 5.31667C2.31225 5.21692 2.33502 5.10906 2.33502 5C2.33502 4.89094 2.31225 4.78308 2.26816 4.68333C2.2285 4.58104 2.16903 4.48759 2.09316 4.40833ZM16.5015 4.16667H4.83483C4.61382 4.16667 4.40185 4.25446 4.24557 4.41074C4.08929 4.56702 4.0015 4.77899 4.0015 5C4.0015 5.22101 4.08929 5.43297 4.24557 5.58926C4.40185 5.74554 4.61382 5.83333 4.83483 5.83333H16.5015C16.7225 5.83333 16.9345 5.74554 17.0908 5.58926C17.247 5.43297 17.3348 5.22101 17.3348 5C17.3348 4.77899 17.247 4.56702 17.0908 4.41074C16.9345 4.25446 16.7225 4.16667 16.5015 4.16667ZM2.09316 0.241667C2.01391 0.165799 1.92046 0.106329 1.81816 0.0666666C1.6664 0.00285041 1.49914 -0.0145849 1.33748 0.0165602C1.17583 0.0477053 1.02702 0.126035 0.909829 0.241667C0.83622 0.322667 0.777031 0.415679 0.734829 0.516667C0.690741 0.616417 0.667969 0.724274 0.667969 0.833333C0.667969 0.942392 0.690741 1.05025 0.734829 1.15C0.777031 1.25099 0.83622 1.344 0.909829 1.425C0.99083 1.49861 1.08384 1.5578 1.18483 1.6C1.33659 1.66382 1.50385 1.68125 1.66551 1.65011C1.82717 1.61896 1.97598 1.54063 2.09316 1.425C2.16677 1.344 2.22596 1.25099 2.26816 1.15C2.31225 1.05025 2.33502 0.942392 2.33502 0.833333C2.33502 0.724274 2.31225 0.616417 2.26816 0.516667C2.22596 0.415679 2.16677 0.322667 2.09316 0.241667ZM16.5015 8.33333H4.83483C4.61382 8.33333 4.40185 8.42113 4.24557 8.57741C4.08929 8.73369 4.0015 8.94565 4.0015 9.16667C4.0015 9.38768 4.08929 9.59964 4.24557 9.75592C4.40185 9.9122 4.61382 10 4.83483 10H16.5015C16.7225 10 16.9345 9.9122 17.0908 9.75592C17.247 9.59964 17.3348 9.38768 17.3348 9.16667C17.3348 8.94565 17.247 8.73369 17.0908 8.57741C16.9345 8.42113 16.7225 8.33333 16.5015 8.33333Z" fill="#3A3B46"/>
</svg>
